<?xml version="1.0" encoding="UTF-8"?>
<!DOCTYPE svg PUBLIC "-//W3C//DTD SVG 1.1//EN" "http://www.w3.org/Graphics/SVG/1.1/DTD/svg11.dtd">
<svg xmlns="http://www.w3.org/2000/svg" version="1.1" width="666px" height="158px" style="shape-rendering:geometricPrecision; text-rendering:geometricPrecision; image-rendering:optimizeQuality; fill-rule:evenodd; clip-rule:evenodd" xmlns:xlink="http://www.w3.org/1999/xlink">
<g><path style="opacity:0.961" fill="#e3e3e3" d="M 151.5,63.5 C 152.053,65.5518 153.053,65.8852 154.5,64.5C 156.229,63.8825 157.729,62.8825 159,61.5C 159.188,50.4537 159.688,39.4537 160.5,28.5C 163.63,25.887 166.796,25.887 170,28.5C 169.11,34.743 168.61,41.0764 168.5,47.5C 168.5,48.8333 168.5,50.1667 168.5,51.5C 169.791,51.7373 170.791,51.404 171.5,50.5C 174.245,46.963 177.912,45.2964 182.5,45.5C 182.498,49.5115 181.332,53.1781 179,56.5C 172.614,65.5599 164.448,72.3933 154.5,77C 146.072,78.6418 138.405,76.9751 131.5,72C 122.627,64.6281 114.627,56.4614 107.5,47.5C 107.189,46.5222 106.522,45.8555 105.5,45.5C 104.197,48.6447 104.197,51.6447 105.5,54.5C 105.666,60.8421 105.5,67.1754 105,73.5C 102.333,76.1667 99.6667,76.1667 97,73.5C 96.6935,61.8111 96.0269,50.1444 95,38.5C 92.8316,36.5455 90.4983,35.8788 88,36.5C 88.5623,73.4892 88.5623,110.489 88,147.5C 87.7515,150.919 87.2515,154.253 86.5,157.5C 84.1667,157.5 81.8333,157.5 79.5,157.5C 78.8393,119.5 78.1727,81.4999 77.5,43.5C 77.8627,42.8165 78.1961,42.1499 78.5,41.5C 78.7989,39.396 78.4656,37.396 77.5,35.5C 76.8933,35.6236 76.56,35.9569 76.5,36.5C 75.1932,37.1534 73.8599,37.8201 72.5,38.5C 71.3347,50.4747 70.5014,62.4747 70,74.5C 68.6949,77.3064 66.5282,78.1397 63.5,77C 62.8742,76.2496 62.3742,75.4162 62,74.5C 61.6667,65.8333 61.3333,57.1667 61,48.5C 58.8383,52.3684 55.6717,53.8684 51.5,53C 50.0878,49.2973 50.5878,45.7973 53,42.5C 73.7126,18.0064 95.0459,17.3397 117,40.5C 119.6,44.7132 122.433,48.7132 125.5,52.5C 126.156,44.8509 126.323,37.1843 126,29.5C 128.858,25.5946 131.525,25.5946 134,29.5C 134.199,37.2155 134.699,44.8822 135.5,52.5C 134.825,55.4891 135.158,58.4891 136.5,61.5C 137.85,62.9501 139.516,63.6168 141.5,63.5C 141.922,44.1387 142.588,24.8053 143.5,5.5C 147.849,4.57687 151.183,5.9102 153.5,9.5C 152.732,13.4452 152.232,17.4452 152,21.5C 151.616,35.5783 151.45,49.5783 151.5,63.5 Z"/></g>
<g><path style="opacity:0.018" fill="#000000" d="M 76.5,36.5 C 76.56,35.9569 76.8933,35.6236 77.5,35.5C 78.4656,37.396 78.7989,39.396 78.5,41.5C 77.8333,39.8333 77.1667,38.1667 76.5,36.5 Z"/></g>
<g><path style="opacity:0.179" fill="#000000" d="M 107.5,47.5 C 105.656,49.2789 104.99,51.6122 105.5,54.5C 104.197,51.6447 104.197,48.6447 105.5,45.5C 106.522,45.8555 107.189,46.5222 107.5,47.5 Z"/></g>
<g><path style="opacity:0.076" fill="#000000" d="M 168.5,47.5 C 169.1,48.9002 170.1,49.9002 171.5,50.5C 170.791,51.404 169.791,51.7373 168.5,51.5C 168.5,50.1667 168.5,48.8333 168.5,47.5 Z"/></g>
<g><path style="opacity:0.06" fill="#000000" d="M 151.5,63.5 C 152.391,64.1098 153.391,64.4431 154.5,64.5C 153.053,65.8852 152.053,65.5518 151.5,63.5 Z"/></g>
<g><path style="opacity:0.966" fill="#e2e2e2" d="M 524.5,78.5 C 527.518,78.3354 530.518,78.502 533.5,79C 534.333,79.8333 535.167,80.6667 536,81.5C 543.006,100.177 550.006,118.843 557,137.5C 559.128,141.376 561.461,141.376 564,137.5C 564.667,136.167 565.333,134.833 566,133.5C 571.818,115.897 577.485,98.2304 583,80.5C 584.822,78.9546 586.989,78.288 589.5,78.5C 592.011,78.288 594.178,78.9546 596,80.5C 596.458,83.5576 596.124,86.5576 595,89.5C 588.591,109.062 581.591,128.396 574,147.5C 565.231,156.6 556.565,156.6 548,147.5C 538.283,125.848 529.45,103.848 521.5,81.5C 522.34,80.265 523.34,79.265 524.5,78.5 Z"/></g>
<g><path style="opacity:0.018" fill="#000000" d="M 638.5,79.5 C 632.773,79.2598 627.106,79.5931 621.5,80.5C 623.915,79.1858 626.748,78.5191 630,78.5C 633.021,78.5022 635.854,78.8356 638.5,79.5 Z"/></g>
<g><path style="opacity:0.965" fill="#e3e3e3" d="M 364.5,79.5 C 378.412,79.1767 392.246,79.5101 406,80.5C 406.793,84.423 406.626,88.2564 405.5,92C 392.833,92.3333 380.167,92.6667 367.5,93C 362.379,93.7892 359.712,96.7892 359.5,102C 359.408,104.814 360.408,107.147 362.5,109C 372.833,109.333 383.167,109.667 393.5,110C 403.124,110.96 408.957,116.127 411,125.5C 414.184,145.32 405.684,154.82 385.5,154C 374.152,154.832 362.819,154.666 351.5,153.5C 350.197,149.968 350.197,146.468 351.5,143C 365.481,141.966 379.481,141.299 393.5,141C 400.046,135.295 400.046,129.628 393.5,124C 383.833,123.667 374.167,123.333 364.5,123C 355.079,121.244 349.246,115.744 347,106.5C 343.88,91.4873 349.713,82.4873 364.5,79.5 Z"/></g>
<g><path style="opacity:0.971" fill="#eaeaea" d="M 489.5,86.5 C 489.5,88.1667 489.5,89.8333 489.5,91.5C 486.941,91.1984 484.607,91.5318 482.5,92.5C 479.751,92.2739 477.084,92.6072 474.5,93.5C 474.166,113.479 474.166,133.479 474.5,153.5C 471.201,154.376 467.868,154.543 464.5,154C 463.874,153.25 463.374,152.416 463,151.5C 461.451,132.173 460.285,112.839 459.5,93.5C 454.025,92.5111 448.358,92.1778 442.5,92.5C 442.5,88.8333 442.5,85.1667 442.5,81.5C 445.385,81.8064 448.052,81.4731 450.5,80.5C 462.822,79.5807 475.156,79.414 487.5,80C 489.229,81.7889 489.896,83.9556 489.5,86.5 Z"/></g>
<g><path style="opacity:0.081" fill="#000000" d="M 501.5,79.5 C 501.167,80.5 500.5,81.1667 499.5,81.5C 499.5,80.1667 500.167,79.5 501.5,79.5 Z"/></g>
<g><path style="opacity:0.963" fill="#e5e5e5" d="M 501.5,79.5 C 505.106,79.2108 508.606,79.5442 512,80.5C 513.741,104.834 514.241,129.167 513.5,153.5C 509.618,154.637 505.784,154.637 502,153.5C 499.925,129.55 499.092,105.55 499.5,81.5C 500.5,81.1667 501.167,80.5 501.5,79.5 Z"/></g>
<g><path style="opacity:0.964" fill="#e9e9e9" d="M 638.5,79.5 C 645.508,79.3337 652.508,79.5004 659.5,80C 660.617,83.0731 660.784,86.2397 660,89.5C 646.173,90.7793 632.34,92.2793 618.5,94C 613.26,98.1164 612.427,102.95 616,108.5C 618.351,109.714 620.851,110.548 623.5,111C 635.833,111.333 648.167,111.667 660.5,112C 661.617,115.073 661.784,118.24 661,121.5C 646.858,122.693 632.692,123.86 618.5,125C 616.667,125.5 615.5,126.667 615,128.5C 614.264,131.592 614.431,134.592 615.5,137.5C 615.5,138.833 616.167,139.5 617.5,139.5C 619.63,140.032 621.63,140.865 623.5,142C 634.828,142.5 646.162,142.667 657.5,142.5C 658.671,143.345 660.005,144.011 661.5,144.5C 661.777,147.448 661.444,150.281 660.5,153C 644.483,154.9 628.483,154.9 612.5,153C 602.794,147.246 599.294,138.746 602,127.5C 603.152,123.513 605.318,120.18 608.5,117.5C 598.916,105.963 599.249,94.7964 609.5,84C 613.187,81.715 617.187,80.5483 621.5,80.5C 627.106,79.5931 632.773,79.2598 638.5,79.5 Z"/></g>
<g><path style="opacity:0.974" fill="#e1e1e1" d="M 421.5,80.5 C 424.85,80.335 428.183,80.5017 431.5,81C 432,81.5 432.5,82 433,82.5C 434.064,89.458 434.731,96.458 435,103.5C 435.5,120.163 435.667,136.83 435.5,153.5C 431.818,153.665 428.152,153.499 424.5,153C 423.874,152.25 423.374,151.416 423,150.5C 421.32,127.115 420.82,103.782 421.5,80.5 Z"/></g>
<g><path style="opacity:0.134" fill="#000000" d="M 450.5,80.5 C 448.052,81.4731 445.385,81.8064 442.5,81.5C 442.5,85.1667 442.5,88.8333 442.5,92.5C 448.358,92.1778 454.025,92.5111 459.5,93.5C 453.5,93.5 447.5,93.5 441.5,93.5C 441.5,89.1667 441.5,84.8333 441.5,80.5C 444.5,80.5 447.5,80.5 450.5,80.5 Z"/></g>
<g><path style="opacity:0.968" fill="#e5e5e5" d="M 214.5,94.5 C 208.07,94.0821 201.736,93.0821 195.5,91.5C 195.012,88.2893 195.679,85.456 197.5,83C 212.12,81.4201 226.787,81.0867 241.5,82C 256.287,86.7418 261.12,96.5752 256,111.5C 253.341,117.492 248.841,121.325 242.5,123C 233.152,123.917 223.818,124.917 214.5,126C 211.527,128.448 210.027,131.614 210,135.5C 209.5,142.492 209.334,149.492 209.5,156.5C 205.563,156.793 201.73,156.46 198,155.5C 197.333,145.833 197.333,136.167 198,126.5C 200.986,120.18 205.819,116.013 212.5,114C 221.881,113.12 231.215,111.953 240.5,110.5C 244.74,105.019 244.406,99.8519 239.5,95C 231.173,94.5003 222.84,94.3336 214.5,94.5 Z"/></g>
<g><path style="opacity:0.967" fill="#e3e3e3" d="M 289.5,82.5 C 299.224,82.1411 308.891,82.6411 318.5,84C 331.111,88.6406 337.611,97.8073 338,111.5C 339.364,123.291 337.03,134.291 331,144.5C 323.413,152.568 314.079,155.901 303,154.5C 282.029,157.173 270.029,148.173 267,127.5C 263.431,112.32 266.931,99.1529 277.5,88C 281.481,85.8381 285.481,84.0048 289.5,82.5 Z M 293.5,93.5 C 301.75,92.9137 309.75,93.9137 317.5,96.5C 318.167,97.8333 319.167,98.8333 320.5,99.5C 326.338,110.566 326.838,121.9 322,133.5C 319.222,136.807 315.722,138.974 311.5,140C 305.167,140.667 298.833,140.667 292.5,140C 290.359,139.427 288.359,138.594 286.5,137.5C 285.5,135.833 284.167,134.5 282.5,133.5C 277.68,122.955 277.347,112.288 281.5,101.5C 282.906,101.027 283.573,100.027 283.5,98.5C 284.167,98.5 284.5,98.1667 284.5,97.5C 286.027,97.573 287.027,96.9063 287.5,95.5C 289.579,95.0293 291.579,94.3627 293.5,93.5 Z"/></g>
<g><path style="opacity:0.972" fill="#e6e6e6" d="M 56.5,157.5 C 40.5,157.5 24.5,157.5 8.5,157.5C 6.81888,153.763 7.31888,150.43 10,147.5C 23.8351,146.383 37.6684,145.216 51.5,144C 55.2027,140.604 56.3694,136.437 55,131.5C 53.786,129.951 52.286,128.785 50.5,128C 36.4316,127.948 22.4316,127.281 8.5,126C 7.20861,122.545 7.20861,119.045 8.5,115.5C 22.1216,114.684 35.7883,114.184 49.5,114C 55.8225,111.371 57.6558,106.871 55,100.5C 53.6811,98.5125 51.8477,97.3459 49.5,97C 35.8447,96.1354 22.1781,95.6354 8.5,95.5C 6.9357,91.4927 7.26903,87.6593 9.5,84C 24.8395,82.1207 40.1728,82.1207 55.5,84C 64.2797,87.2095 68.613,93.5428 68.5,103C 68.4886,109.684 66.4886,115.684 62.5,121C 72.0696,135.193 70.0696,147.359 56.5,157.5 Z"/></g>
<g><path style="opacity:0.116" fill="#000000" d="M 489.5,86.5 C 490.461,88.2646 490.795,90.2646 490.5,92.5C 487.833,92.5 485.167,92.5 482.5,92.5C 484.607,91.5318 486.941,91.1984 489.5,91.5C 489.5,89.8333 489.5,88.1667 489.5,86.5 Z"/></g>
<g><path style="opacity:0.193" fill="#000000" d="M 195.5,91.5 C 201.736,93.0821 208.07,94.0821 214.5,94.5C 208.167,94.5 201.833,94.5 195.5,94.5C 195.5,93.5 195.5,92.5 195.5,91.5 Z"/></g>
<g><path style="opacity:0.105" fill="#101010" d="M 293.5,93.5 C 300.379,92.1947 307.379,92.3614 314.5,94C 315.942,94.3768 316.942,95.2101 317.5,96.5C 309.75,93.9137 301.75,92.9137 293.5,93.5 Z"/></g>
<g><path style="opacity:0.125" fill="#000000" d="M 287.5,95.5 C 287.027,96.9063 286.027,97.573 284.5,97.5C 284.973,96.0937 285.973,95.427 287.5,95.5 Z"/></g>
<g><path style="opacity:0.127" fill="#161616" d="M 317.5,96.5 C 319.5,96.5 320.5,97.5 320.5,99.5C 319.167,98.8333 318.167,97.8333 317.5,96.5 Z"/></g>
<g><path style="opacity:0.139" fill="#000000" d="M 283.5,98.5 C 283.573,100.027 282.906,101.027 281.5,101.5C 281.427,99.9731 282.094,98.9731 283.5,98.5 Z"/></g>
<g><path style="opacity:0.964" fill="#dddddd" d="M 129.5,157.5 C 124.5,157.5 119.5,157.5 114.5,157.5C 105.501,156.344 99.6681,151.344 97,142.5C 91.4138,112.086 103.914,99.5861 134.5,105C 141.882,106.049 146.382,110.216 148,117.5C 149.06,126.979 148.393,136.312 146,145.5C 142.451,152.343 136.951,156.343 129.5,157.5 Z M 133.5,115.5 C 134.167,116.833 135.167,117.833 136.5,118.5C 138.723,126.068 139.056,133.734 137.5,141.5C 136.599,142.29 135.932,143.29 135.5,144.5C 125.738,149.041 116.404,148.374 107.5,142.5C 106.833,141.167 105.833,140.167 104.5,139.5C 101.174,116.518 110.841,108.518 133.5,115.5 Z"/></g>
<g><path style="opacity:0.937" fill="#f9f9f9" d="M 156.5,111.5 C 166.833,111.5 177.167,111.5 187.5,111.5C 187.5,115.833 187.5,120.167 187.5,124.5C 177.828,124.666 168.161,124.5 158.5,124C 158,123.5 157.5,123 157,122.5C 156.501,118.848 156.335,115.182 156.5,111.5 Z"/></g>
<g><path style="opacity:0.161" fill="#1f1f1f" d="M 133.5,115.5 C 135.5,115.5 136.5,116.5 136.5,118.5C 135.167,117.833 134.167,116.833 133.5,115.5 Z"/></g>
<g><path style="opacity:0.121" fill="#000000" d="M 136.5,118.5 C 137.117,118.611 137.617,118.944 138,119.5C 140.814,126.95 140.648,134.283 137.5,141.5C 139.056,133.734 138.723,126.068 136.5,118.5 Z"/></g>
<g><path style="opacity:0.104" fill="#1b1b1b" d="M 282.5,133.5 C 284.167,134.5 285.5,135.833 286.5,137.5C 284.167,137.167 282.833,135.833 282.5,133.5 Z"/></g>
<g><path style="opacity:0.333" fill="#3f3f3f" d="M 615.5,137.5 C 616.5,137.833 617.167,138.5 617.5,139.5C 616.167,139.5 615.5,138.833 615.5,137.5 Z"/></g>
<g><path style="opacity:0.129" fill="#020202" d="M 104.5,139.5 C 105.833,140.167 106.833,141.167 107.5,142.5C 105.5,142.5 104.5,141.5 104.5,139.5 Z"/></g>
<g><path style="opacity:0.145" fill="#000000" d="M 657.5,142.5 C 659.483,142.157 660.817,142.824 661.5,144.5C 660.005,144.011 658.671,143.345 657.5,142.5 Z"/></g>
<g><path style="opacity:0.541" fill="#666666" d="M 137.5,141.5 C 137.715,143.179 137.048,144.179 135.5,144.5C 135.932,143.29 136.599,142.29 137.5,141.5 Z"/></g>
</svg>
